# ProBuilder 5.1.1
# https://unity3d.com/unity/features/worldbuilding/probuilder
# 19/11/2024 02:32:23 p. m.

mtllib ./CrewMember.mtl
o CrewMember

g Cube
v -0.275 0.2776257 -0.2749985
v -0.1419155 0.2776257 -0.2749985
v -0.1419155 0.5526257 -0.2749985
v -0.275 0.5526257 -0.2749985
v -0.275 0.6678129 -0.5499986
v -0.1419155 0.6678129 -0.5499986
v -0.1419155 0.9428129 -0.5499986
v -0.275 0.9428129 -0.5499986
v -0.2750001 0.2776257 0.2750015
v -0.2750001 0.5526257 0.2750015
v -0.1419156 0.5526257 0.2750016
v -0.1419156 0.2776257 0.2750016
v -0.2750001 0.6678129 0.5500016
v -0.2750001 0.9428129 0.5500016
v -0.1419156 0.9428129 0.5500015
v -0.1419156 0.6678129 0.5500015
v -0.275 0.002625644 -0.4124986
v -0.1419155 0.002625644 -0.4124986
v -0.275 0.2776257 1.490116E-06
v -0.1419155 0.2776257 1.490116E-06
v -0.1419155 0.002625644 -0.1374985
v -0.275 0.002625644 -0.1374985
v -0.275 0.002625644 0.1375015
v -0.1419155 0.002625644 0.1375015
v -0.1419156 0.002625644 0.4125015
v -0.2750001 0.002625644 0.4125015
v 0.1722527 0.2776257 -0.2749985
v 0.1722527 0.5526257 -0.2749985
v 0.2750001 0.2776257 -0.2749985
v 0.2750001 0.5526257 -0.2749985
v 0.1722527 0.6678129 -0.5499985
v 0.1722527 0.9428129 -0.5499985
v 0.2750001 0.6678129 -0.5499986
v 0.2750001 0.9428129 -0.5499986
v 0.1722526 0.5526257 0.2750016
v 0.1722526 0.2776257 0.2750016
v 0.275 0.5526257 0.2750016
v 0.275 0.2776257 0.2750016
v 0.1722526 0.9428129 0.5500016
v 0.1722526 0.6678129 0.5500016
v 0.275 0.9428129 0.5500016
v 0.275 0.6678129 0.5500016
v 0.1722527 0.002625644 -0.4124985
v 0.2750001 0.002625644 -0.4124985
v 0.1722526 0.2776257 1.519918E-06
v 0.1722527 0.002625644 -0.1374985
v 0.275 0.2776257 1.549721E-06
v 0.275 0.002625644 -0.1374985
v 0.1722526 0.002625644 0.1375015
v 0.275 0.002625644 0.1375016
v 0.1722526 0.002625644 0.4125016
v 0.275 0.002625644 0.4125016
v -0.275 0.2776257 0.1375015
v -0.275 0.5526257 0.1375015
v -0.275 0.5526257 1.490116E-06
v -0.275 0.8276256 0.1375015
v -0.2750001 0.8276256 0.2750015
v -0.275 0.8276256 1.490116E-06
v 0.275 0.5526257 0.1375016
v 0.275 0.2776257 0.1375016
v 0.275 0.5526257 1.549721E-06
v 0.275 0.8276256 0.2750016
v 0.275 0.8276256 0.1375016
v 0.275 0.8276256 1.549721E-06
v -0.2750001 0.002625644 0.2750015
v 0.275 0.002625644 0.2750016
v -0.1419155 0.8276256 1.490116E-06
v -0.1419155 0.8276256 0.1375015
v -0.1419156 0.8276256 0.2750016
v -0.1419156 0.002625644 0.2750016
v 0.1722526 0.8276256 0.1375015
v 0.1722526 0.8276256 1.519918E-06
v 0.1722526 0.8276256 0.2750016
v 0.1722526 1.102626 1.519918E-06
v 0.1722526 1.102626 0.1375015
v -0.1419155 1.102626 0.1375015
v -0.1419155 1.102626 1.490116E-06
v 0.1722526 0.002625644 0.2750016
v -0.275 0.2776257 -0.1374985
v -0.275 0.5526257 -0.1374985
v -0.275 0.8276256 -0.1374985
v -0.275 0.8276256 -0.2749985
v 0.275 0.5526257 -0.1374985
v 0.275 0.2776257 -0.1374985
v 0.275 0.8276256 -0.1374985
v 0.2750001 0.8276256 -0.2749985
v -0.275 0.002625644 -0.2749985
v 0.2750001 0.002625644 -0.2749985
v -0.1419155 0.8276256 -0.2749985
v -0.1419155 0.8276256 -0.1374985
v -0.1419155 0.002625644 -0.2749985
v 0.1722527 0.8276256 -0.1374985
v 0.1722527 0.8276256 -0.2749985
v 0.1722527 1.102626 -0.1374985
v -0.1419155 1.102626 -0.1374985
v 0.1722527 0.002625644 -0.2749985

vt 0.5 0.504774
vt 0.2580282 0.504774
vt 0.2580282 1.004774
vt 0.5 1.004774
vt 0.5 1.214205
vt 0.2580282 1.214205
vt 0.2580282 1.714205
vt 0.5 1.714205
vt -0.5 0.504774
vt -0.5 1.004774
vt -0.2580282 1.004774
vt -0.2580282 0.504774
vt -0.5 1.214205
vt -0.5 1.714205
vt -0.2580282 1.714205
vt -0.2580282 1.214205
vt 0.2580282 0.227878
vt 0.5 0.227878
vt 0.5 -0.3311391
vt 0.2580282 -0.3311391
vt -0.5 0.4514848
vt -0.2580282 0.4514848
vt -0.2580282 -0.1075323
vt -0.5 -0.1075323
vt 0.2580282 0.4514824
vt 0.5 0.4514824
vt 0.5 -0.1075347
vt 0.2580282 -0.1075347
vt -0.5 0.2278756
vt -0.2580282 0.2278756
vt -0.2580282 -0.3311415
vt -0.5 -0.3311415
vt -0.3131866 0.504774
vt -0.3131866 1.004774
vt -0.3131866 1.214205
vt -0.3131866 1.714205
vt 0.3131866 1.004774
vt 0.3131866 0.504774
vt 0.3131866 1.714205
vt 0.3131866 1.214205
vt -0.3131866 -0.3311391
vt -0.3131866 0.227878
vt 0.3131866 0.4514848
vt 0.3131866 -0.1075323
vt -0.3131866 -0.1075347
vt -0.3131866 0.4514824
vt 0.3131866 0.2278756
vt 0.3131866 -0.3311415
vt 0.2500027 0.504774
vt 0.2500027 1.004774
vt 2.736395E-06 0.504774
vt 2.736395E-06 1.004774
vt 0.2500027 1.504774
vt 0.5000027 1.504774
vt 2.736395E-06 1.504774
vt -0.2500027 1.004774
vt -0.2500027 0.504774
vt -0.5000027 1.504774
vt -0.2500027 1.504774
vt 0.5000027 0.004773899
vt 0.2500027 0.004773899
vt 0.7500027 0.004773899
vt -0.5000027 0.004773899
vt -0.7500027 0.004773899
vt -0.2500027 0.004773899
vt -2.736395E-06 0.2580282
vt -0.2500027 0.2580282
vt -0.2500027 0.5
vt -2.736395E-06 0.5
vt -0.5000027 0.2580282
vt -0.5000027 0.5
vt 0.2500027 0.2580282
vt 0.2500027 0.5
vt 0.5000027 0.5
vt 0.5000027 0.2580282
vt 0.7500027 0.5
vt 0.7500027 0.2580282
vt -2.736395E-06 -0.5
vt -0.2500027 -0.5
vt -0.2500027 -0.3131866
vt -2.736395E-06 -0.3131866
vt -0.5000027 -0.5
vt -0.5000027 -0.3131866
vt 0.2500027 -0.5
vt 0.2500027 -0.3131866
vt 0.5000027 -0.3131866
vt 0.5000027 -0.5
vt 0.7500027 -0.3131866
vt 0.7500027 -0.5
vt -0.2499973 0.504774
vt -0.2499973 1.004774
vt -0.4999972 0.504774
vt -0.4999972 1.004774
vt -0.2499973 1.504774
vt -0.4999972 1.504774
vt 0.2499973 1.004774
vt 0.2499973 0.504774
vt 0.4999972 1.004774
vt 0.4999972 0.504774
vt 0.2499973 1.504774
vt 0.4999972 1.504774
vt -0.4999972 0.004773899
vt -0.7499973 0.004773899
vt -0.2499973 0.004773899
vt 0.4999972 0.004773899
vt 0.2499973 0.004773899
vt 0.7499973 0.004773899
vt 0.4999972 0.2580282
vt 0.2499973 0.2580282
vt 0.2499973 0.5
vt 0.4999972 0.5
vt -0.7499973 0.2580282
vt -0.7499973 0.5
vt -0.4999972 0.5
vt -0.4999972 0.2580282
vt -0.2499973 0.5
vt -0.2499973 0.2580282
vt 0.4999972 -0.5
vt 0.2499973 -0.5
vt 0.2499973 -0.3131866
vt 0.4999972 -0.3131866
vt -0.7499973 -0.5
vt -0.7499973 -0.3131866
vt -0.4999972 -0.3131866
vt -0.4999972 -0.5
vt -0.2499973 -0.3131866
vt -0.2499973 -0.5
vt -0.8493605 -0.3131866
vt -0.8493605 -0.5
vt -1.391451 -0.3131866
vt -1.391451 -0.5
vt -0.9999973 1.714205
vt -0.9999973 1.214205
vt 0.9999973 1.214205
vt 0.9999973 1.714205
vt 1.042531 -0.5
vt 1.042531 -0.3131866
vt 1.584621 -0.5
vt 1.584621 -0.3131866
vt -0.8493606 0.2580282
vt -1.391451 0.2580282
vt 1.042531 0.2580282
vt 1.584621 0.2580282
vt -0.8493605 0.5
vt -1.391451 0.5
vt 1.042531 0.5
vt 1.584621 0.5
vt -1.042536 -0.3131866
vt -1.042536 -0.5
vt -1.584626 -0.3131866
vt -1.584626 -0.5
vt -1.000003 1.714205
vt -1.000003 1.214205
vt 0.8493656 -0.5
vt 0.8493656 -0.3131866
vt 1.391456 -0.5
vt 1.391456 -0.3131866
vt 0.8493657 0.2580282
vt 1.391456 0.2580282
vt 0.8493657 0.5
vt 1.391456 0.5
vt -1.042536 0.2580282
vt -1.584626 0.2580282
vt 1.000003 1.214205
vt 1.000003 1.714205
vt -1.042536 0.5
vt -1.584626 0.5
vt 0.2499973 2.004774
vt -2.736395E-06 2.004774
vt 0.2500027 2.004774
vt 0.2580282 1.504774
vt -0.3131866 1.504774
vt 0.2580282 2.004774
vt -0.3131866 2.004774
vt -0.2499973 2.004774
vt -0.2500027 2.004774
vt 0.3131866 1.504774
vt -0.2580282 1.504774
vt 0.3131866 2.004774
vt -0.2580282 2.004774

vn 0 0 -1
vn -2.239353E-07 0 1
vn 0 0.4472136 -0.8944272
vn -5.007346E-08 -0.4472136 0.8944272
vn 0 -0.4472136 -0.8944272
vn -2.002939E-07 0.4472135 0.8944272
vn -1 0 -2.167441E-07
vn 1 0 2.167441E-07
vn 0 1 0
vn 0 -1 0
vn 0 -0.9223562 -0.3863405
vn 0 0.9223562 0.3863406
vn 0 0.9223561 -0.3863408
vn 0 -0.9223562 0.3863405

usemtl ProBuilderDefault
f 4/4/1 3/3/1 2/2/1 1/1/1
f 8/8/1 7/7/1 6/6/1 5/5/1
f 12/12/2 11/11/2 10/10/2 9/9/2
f 16/16/2 15/15/2 14/14/2 13/13/2
f 1/18/3 2/17/3 18/20/3 17/19/3
f 22/24/4 21/23/4 20/22/4 19/21/4
f 19/26/5 20/25/5 24/28/5 23/27/5
f 26/32/6 25/31/6 12/30/6 9/29/6
f 3/3/1 28/34/1 27/33/1 2/2/1
f 28/34/1 30/10/1 29/9/1 27/33/1
f 7/7/1 32/36/1 31/35/1 6/6/1
f 32/36/1 34/14/1 33/13/1 31/35/1
f 36/38/2 35/37/2 11/11/2 12/12/2
f 36/38/2 38/1/2 37/4/2 35/37/2
f 40/40/2 39/39/2 15/15/2 16/16/2
f 40/40/2 42/5/2 41/8/2 39/39/2
f 2/17/3 27/42/3 43/41/3 18/20/3
f 27/42/3 29/29/3 44/32/3 43/41/3
f 21/23/4 46/44/4 45/43/4 20/22/4
f 46/44/4 48/27/4 47/26/4 45/43/4
f 20/25/5 45/46/5 49/45/5 24/28/5
f 45/46/5 47/21/5 50/24/5 49/45/5
f 51/48/6 36/47/6 12/30/6 25/31/6
f 52/19/6 38/18/6 36/47/6 51/48/6
f 10/4/7 54/50/7 53/49/7 9/1/7
f 54/50/7 55/52/7 19/51/7 53/49/7
f 57/54/7 56/53/7 54/50/7 10/4/7
f 56/53/7 58/55/7 55/52/7 54/50/7
f 60/57/8 59/56/8 37/10/8 38/9/8
f 47/51/8 61/52/8 59/56/8 60/57/8
f 59/56/8 63/59/8 62/58/8 37/10/8
f 61/52/8 64/55/8 63/59/8 59/56/8
f 53/49/7 19/51/7 23/61/7 65/60/7
f 9/1/7 53/49/7 65/60/7 26/62/7
f 38/9/8 52/64/8 66/63/8 60/57/8
f 60/57/8 66/63/8 50/65/8 47/51/8
f 58/69/9 56/68/9 68/67/9 67/66/9
f 56/68/9 57/71/9 69/70/9 68/67/9
f 24/72/10 70/75/10 65/74/10 23/73/10
f 70/75/10 25/77/10 26/76/10 65/74/10
f 72/81/9 71/80/9 63/79/9 64/78/9
f 71/80/9 73/83/9 62/82/9 63/79/9
f 77/66/9 76/67/9 75/80/9 74/81/9
f 68/67/9 69/70/9 73/83/9 71/80/9
f 66/87/10 78/86/10 49/85/10 50/84/10
f 52/89/10 51/88/10 78/86/10 66/87/10
f 78/86/10 70/75/10 24/72/10 49/85/10
f 51/88/10 25/77/10 70/75/10 78/86/10
f 55/52/7 80/91/7 79/90/7 19/51/7
f 80/91/7 4/93/7 1/92/7 79/90/7
f 58/55/7 81/94/7 80/91/7 55/52/7
f 81/94/7 82/95/7 4/93/7 80/91/7
f 84/97/8 83/96/8 61/52/8 47/51/8
f 29/99/8 30/98/8 83/96/8 84/97/8
f 83/96/8 85/100/8 64/55/8 61/52/8
f 30/98/8 86/101/8 85/100/8 83/96/8
f 17/103/7 87/102/7 79/90/7 1/92/7
f 87/102/7 22/104/7 19/51/7 79/90/7
f 84/97/8 47/51/8 48/106/8 88/105/8
f 29/99/8 84/97/8 88/105/8 44/107/8
f 82/111/9 81/110/9 90/109/9 89/108/9
f 81/110/9 58/69/9 67/66/9 90/109/9
f 18/112/10 91/115/10 87/114/10 17/113/10
f 91/115/10 21/117/10 22/116/10 87/114/10
f 93/121/9 92/120/9 85/119/9 86/118/9
f 92/120/9 72/81/9 64/78/9 85/119/9
f 89/108/9 90/109/9 92/120/9 93/121/9
f 95/109/9 77/66/9 74/81/9 94/120/9
f 88/125/10 96/124/10 43/123/10 44/122/10
f 48/127/10 46/126/10 96/124/10 88/125/10
f 96/124/10 91/115/10 18/112/10 43/123/10
f 46/126/10 21/117/10 91/115/10 96/124/10
f 31/130/11 33/131/11 30/129/11 28/128/11
f 8/132/7 5/133/7 4/93/7 82/95/7
f 33/134/8 34/135/8 86/101/8 30/98/8
f 34/138/12 32/139/12 93/137/12 86/136/12
f 6/141/11 31/130/11 28/128/11 3/140/11
f 32/139/12 7/143/12 89/142/12 93/137/12
f 5/145/11 6/141/11 3/140/11 4/144/11
f 7/143/12 8/147/12 82/146/12 89/142/12
f 39/150/13 41/151/13 62/149/13 73/148/13
f 41/152/8 42/153/8 37/10/8 62/58/8
f 42/156/14 40/157/14 35/155/14 37/154/14
f 40/157/14 16/159/14 11/158/14 35/155/14
f 16/159/14 13/161/14 10/160/14 11/158/14
f 15/163/13 39/150/13 73/148/13 69/162/13
f 13/164/7 14/165/7 57/54/7 10/4/7
f 14/167/13 15/163/13 69/162/13 57/166/13
f 94/168/8 74/169/8 72/55/8 92/100/8
f 76/170/7 77/169/7 67/55/7 68/53/7
f 95/173/1 94/174/1 92/172/1 90/171/1
f 77/169/7 95/175/7 90/94/7 67/55/7
f 74/169/8 75/176/8 71/59/8 72/55/8
f 75/179/2 76/180/2 68/178/2 71/177/2

