# ProBuilder 5.1.1
# https://unity3d.com/unity/features/worldbuilding/probuilder
# 21/11/2024 03:07:57 p. m.

mtllib ./MonsterPartA.mtl
o MonsterPartA

g Arch
v 2.576932 0.0536468 1.491766
v 2.418996 0.0536468 1.491766
v 2.576932 0.0536381 -1.491757
v 2.418996 0.0536381 -1.491757
v 2.084781 1.915598 -1.491762
v 2.084781 1.915607 1.49176
v 1.957011 1.81074 -1.491763
v 1.957011 1.810748 1.491761
v 0.7963152 3.066353 -1.491765
v 0.7963152 3.066362 1.491757
v 0.7475119 2.896688 -1.491765
v 0.7475119 2.896697 1.491758
v -0.7963152 3.066353 -1.491765
v -0.7963152 3.066362 1.491757
v -0.7475138 2.896688 -1.491765
v -0.7475138 2.896697 1.491758
v -2.084783 1.915598 -1.491762
v -2.084783 1.915607 1.49176
v -1.957013 1.81074 -1.491763
v -1.957013 1.810748 1.491761
v -2.576932 0.0536375 -1.491757
v -2.576932 0.05364621 1.491766
v -2.419001 0.05363786 -1.491757
v -2.419001 0.05364656 1.491766

vt 2.576932 1.491762
vt 2.418996 1.491762
vt 2.576932 -1.491761
vt 2.418996 -1.491761
vt 1.491761 -2.114859
vt 1.491761 -0.1889548
vt -1.491762 -2.11486
vt -1.491761 -0.1889548
vt -1.491762 -0.2551304
vt -1.491761 -2.071951
vt 1.491761 -0.2551304
vt 1.491762 -2.071951
vt -1.318037 -1.491761
vt 0.4094993 -1.491761
vt -1.318037 1.491761
vt 0.4094994 1.491761
vt -0.3368025 -1.491761
vt 1.288674 -1.491762
vt -0.3368027 1.491762
vt 1.288674 1.491761
vt -0.7963152 -1.491761
vt 0.7963152 -1.491761
vt -0.7963152 1.491761
vt 0.7963152 1.491761
vt -0.7475138 -1.491761
vt 0.7475119 -1.491761
vt -0.7475138 1.491762
vt 0.7475119 1.491762
vt -0.4094981 -1.491761
vt 1.31804 -1.491761
vt -0.4094982 1.491761
vt 1.318039 1.491761
vt -1.288675 -1.491762
vt 0.3368011 -1.491761
vt -1.288675 1.491762
vt 0.3368013 1.491762
vt -2.419004 1.491762
vt -2.576935 1.491762
vt -2.419004 -1.491761
vt -2.576935 -1.491761
vt 2.57693 -1.506358
vt 2.084779 0.3556021
vt 2.418994 -1.506358
vt 1.957009 0.2507435
vt -2.084781 0.3556035
vt -2.576932 -1.506357
vt -1.957011 0.2507449
vt -2.418996 -1.506357
vt 0.7963119 1.506355
vt 0.7475085 1.33669
vt -0.7963113 1.506352
vt -0.747508 1.336687
vt -2.419001 -1.506358

vn 0 -1 2.91678E-06
vn 0.9667977 0.2555429 -7.453623E-07
vn 0.8524711 0.5227743 -1.524818E-06
vn -0.8534963 -0.5210989 1.543207E-06
vn -0.9671301 -0.2542819 7.416843E-07
vn 0.3564828 0.9343019 -2.813224E-06
vn -0.3577085 -0.9338333 2.835722E-06
vn -0.3564825 0.934302 -2.837146E-06
vn 0.3577085 -0.9338333 2.819804E-06
vn -0.8524712 0.5227741 -1.561263E-06
vn 0.6680802 -0.7440892 2.200075E-06
vn -0.966798 0.2555419 -7.504647E-07
vn 0.9671298 -0.2542834 7.416888E-07
vn 0 3.137153E-06 1
vn 4.329396E-06 -1.864765E-06 -1

usemtl ProBuilderDefault
f 1/1/1 2/2/1 4/4/1 3/3/1
f 3/5/2 5/6/3 6/8/3 1/7/2
f 7/9/4 4/10/5 2/12/5 8/11/4
f 5/13/3 9/14/6 10/16/6 6/15/3
f 11/17/7 7/18/4 8/20/4 12/19/7
f 9/21/6 13/22/8 14/24/8 10/23/6
f 15/25/9 11/26/7 12/28/7 16/27/9
f 13/29/8 17/30/10 18/32/10 14/31/8
f 19/33/11 15/34/9 16/36/9 20/35/11
f 17/8/10 21/7/12 22/5/12 18/6/10
f 23/12/13 19/11/13 20/9/13 24/10/13
f 24/37/1 22/38/1 21/40/1 23/39/1
f 1/41/14 6/42/14 8/44/14 2/43/14
f 5/45/15 3/46/15 4/48/15 7/47/15
f 6/42/14 10/49/14 12/50/14 8/44/14
f 9/51/15 5/45/15 7/47/15 11/52/15
f 10/49/14 14/51/14 16/52/14 12/50/14
f 13/49/15 9/51/15 11/52/15 15/50/15
f 14/51/14 18/45/14 20/47/14 16/52/14
f 17/42/15 13/49/15 15/50/15 19/44/15
f 18/45/14 22/46/14 24/53/14 20/47/14
f 21/41/15 17/42/15 19/44/15 23/43/15

