# ProBuilder 5.1.1
# https://unity3d.com/unity/features/worldbuilding/probuilder
# 28/11/2024 03:53:47 p. m.

mtllib ./ScrewPart.mtl
o ScrewPart

g ScrewPart
v -0.5 -0.0153091 0
v 0 -0.0153091 0
v -0.25 -0.0153091 0.4330127
v -0.04701328 0.9846909 -0.03778458
v 0.006669044 0.9846909 -0.03778458
v -0.02017212 0.9846909 0.009624481
v 0.25 -0.0153091 0.4330127
v 0.03351068 0.9846909 0.009624481
v 0.5 -0.0153091 -2.980232E-08
v 0.06035233 0.9846909 -0.03778458
v 0.2499999 -0.0153091 -0.4330127
v 0.03351068 0.9846909 -0.08520126
v -0.2499999 -0.0153091 -0.4330127
v -0.02017212 0.9846909 -0.08520126
v -0.1482053 0.8333642 -0.02677155
v -0.06643295 0.8333642 0.1176682
v 0.09711123 0.8333642 0.1176682
v 0.1788836 0.8333642 -0.02677155
v 0.09711123 0.8333642 -0.1712189
v -0.06643295 0.8333642 -0.1712189
v -0.1482053 0.1727264 -0.02677155
v -0.06643295 0.1727264 0.1176682
v 0.09711123 0.1727264 0.1176682
v 0.1788836 0.1727264 -0.02677155
v 0.09711123 0.1727264 -0.1712189
v -0.06643295 0.1727264 -0.1712189

vt -0.5 0
vt 0 0
vt -0.25 0.4330127
vt 0.04701328 -0.03778458
vt -0.006669044 -0.03778458
vt 0.02017212 0.009624481
vt 0.25 0.4330127
vt -0.03351068 0.009624481
vt 0.5 -2.980232E-08
vt -0.06035233 -0.03778458
vt 0.2499999 -0.4330127
vt -0.03351068 -0.08520126
vt -0.2499999 -0.4330127
vt 0.02017212 -0.08520126
vt -0.09652319 0.6599629
vt -0.05608314 0.837756
vt -0.001603258 0.8377063
vt 0.06945708 0.6598096
vt -0.06643295 0.6466348
vt -0.02017212 0.8321721
vt 0.03351068 0.8321721
vt 0.09711123 0.6466348
vt -0.05427551 0.6394305
vt 0.008200305 0.8251661
vt 0.06268041 0.8252205
vt 0.1117047 0.6395984
vt -0.06482708 0.6449569
vt 0.003149687 0.8247318
vt 0.05763653 0.8247314
vt 0.1011601 0.6449574
vt -0.09711123 0.6550503
vt -0.03351068 0.8290501
vt 0.02017212 0.8290501
vt 0.06643295 0.6550503
vt -0.1160022 0.663527
vt -0.06409402 0.8359925
vt -0.009607521 0.8360427
vt 0.04998469 0.6636779
vt 0.2528652 -0.2317065
vt -0.2471238 -0.2333856
vt -0.09652319 0.09036177
vt 0.06945708 0.0902085
vt 0.25 -0.2409421
vt -0.25 -0.2409421
vt -0.06643295 0.08492427
vt 0.09711123 0.08492427
vt -0.252808 -0.2362585
vt -0.05427551 0.07405804
vt 0.1117047 0.07422595
vt 0.2471815 -0.2379389
vt -0.2463184 -0.2257243
vt -0.06482708 0.0683445
vt 0.1011601 0.06834502
vt 0.2536637 -0.2236545
vt -0.2499999 -0.2170699
vt -0.09711123 0.07196144
vt 0.06643295 0.07196144
vt 0.2499999 -0.2170699
vt 0.2471472 -0.2214999
vt -0.252842 -0.2199261
vt -0.1160022 0.08349537
vt 0.04998469 0.08364629

vn 0 -1 0
vn 0 1 0
vn -0.9552317 0.2958331 -0.003890291
vn -0.8314907 0.5554906 -0.007305846
vn -0.4079672 0.6098343 0.6794593
vn -0.480223 0.329971 0.8127145
vn 0.3875093 0.6379785 0.6654472
vn 0.4719405 0.3482947 0.8099153
vn 0.7874851 0.6162891 -0.007412017
vn 0.9426465 0.3337686 -0.004013135
vn 0.4051563 0.5745317 -0.7111692
vn 0.4754242 0.3077869 -0.8241596
vn -0.4252785 0.5420169 -0.7248144
vn -0.4833977 0.287975 -0.8266783
vn -0.2293517 0.8891148 0.3960716
vn -0.4718865 0.8816168 -0.008664906
vn -0.8424163 0.5388016 -0.005245104
vn -0.4209084 0.5492978 0.7218781
vn 0.2449842 0.8805749 0.4056729
vn 0.4285091 0.5403212 0.7241775
vn 0.8543445 0.5196751 -0.005758417
vn 0.5058841 0.8625476 -0.009642982
vn 0.4330012 0.5106475 -0.7427981
vn 0.263736 0.850126 -0.4557731
vn -0.4247199 0.521022 -0.740371
vn -0.2462758 0.8610107 -0.4449818

usemtl ProBuilderDefault
f 1/1/1 2/2/1 3/3/1
f 3/3/1 2/2/1 7/7/1
f 7/7/1 2/2/1 9/9/1
f 9/9/1 2/2/1 11/11/1
f 11/11/1 2/2/1 13/13/1
f 13/13/1 2/2/1 1/1/1
f 6/6/2 5/5/2 4/4/2
f 8/8/2 5/5/2 6/6/2
f 10/10/2 5/5/2 8/8/2
f 12/12/2 5/5/2 10/10/2
f 14/14/2 5/5/2 12/12/2
f 4/4/2 5/5/2 14/14/2
f 4/16/4 15/15/3 16/18/6
f 16/18/6 6/17/5 4/16/4
f 6/20/5 16/19/6 17/22/8
f 17/22/8 8/21/7 6/20/5
f 10/25/9 8/24/7 17/23/8
f 17/23/8 18/26/10 10/25/9
f 12/29/11 10/28/9 18/27/10
f 18/27/10 19/30/12 12/29/11
f 14/33/13 12/32/11 19/31/12
f 19/31/12 20/34/14 14/33/13
f 14/36/13 20/35/14 15/38/3
f 15/38/3 4/37/4 14/36/13
f 21/41/17 1/40/16 3/39/15
f 3/39/15 22/42/18 21/41/17
f 15/15/3 21/41/17 22/42/18
f 22/42/18 16/18/6 15/15/3
f 3/44/15 7/43/19 23/46/20
f 23/46/20 22/45/18 3/44/15
f 22/45/18 23/46/20 17/22/8
f 17/22/8 16/19/6 22/45/18
f 7/47/19 9/50/22 24/49/21
f 24/49/21 23/48/20 7/47/19
f 18/26/10 17/23/8 23/48/20
f 23/48/20 24/49/21 18/26/10
f 9/51/22 11/54/24 25/53/23
f 25/53/23 24/52/21 9/51/22
f 24/52/21 25/53/23 19/30/12
f 19/30/12 18/27/10 24/52/21
f 11/55/24 13/58/26 26/57/25
f 26/57/25 25/56/23 11/55/24
f 20/34/14 19/31/12 25/56/23
f 25/56/23 26/57/25 20/34/14
f 13/60/26 1/59/16 21/62/17
f 21/62/17 26/61/25 13/60/26
f 26/61/25 21/62/17 15/38/3
f 15/38/3 20/35/14 26/61/25

