# ProBuilder 5.1.1
# https://unity3d.com/unity/features/worldbuilding/probuilder
# 10/09/2024 03:28:01 p. m.

mtllib ./Ship.mtl
o Ship

g Ship
v 0.25 0.25 0.75
v -0.25 0.25 0.75
v 0.25 0.5 1
v -0.25 0.5 1
v -0.25 0.25 -0.75
v 0.25 0.25 -0.75
v -0.25 0.5 -1
v 0.25 0.5 -1
v 0.25 0 0.5
v -0.25 0 0.5
v 0.25 0.5 0.5
v -0.25 0.5 0.5
v -0.25 0 -0.5
v 0.25 0 -0.5
v -0.25 0.5 -0.5
v 0.25 0.5 -0.5
v -0.25 0 -0.25
v -0.25 0.5 -0.25
v 0.25 0 -0.25
v 0.25 0.5 -0.25
v -0.25 0 0
v -0.25 0.5 0
v 0.25 0.5 0
v 0.25 0 0
v -0.25 0.75 -0.25
v 0.25 0.75 -0.25
v 0.25 0.75 0
v -0.25 0.75 0

vt 0.5 1.414214
vt -0.5 1.414214
vt 0.5 2.12132
vt -0.5 2.12132
vt 0.5 0.7071068
vt -0.5 0.7071068
vt -1 1
vt -1 0
vt -2 1
vt 1 0
vt 1 1
vt 1.5 0.5
vt 2 1
vt 0.5 1
vt -0.5 1
vt 0.5 2
vt -0.5 2
vt -0.5 -1
vt 0.5 -1
vt -0.5 -2
vt 0.5 -2
vt -0.5 0
vt 0.5 0
vt 0.5 -0.5
vt -0.5 -0.5
vt 0 0
vt 0 1
vt 0.5 1.5
vt -0.5 1.5
vt 0 1.5

vn 0 -0.7071068 0.7071068
vn 0 -0.7071068 -0.7071068
vn 1 0 0
vn -1 0 0
vn 0 1 0
vn 0 -1 0
vn 0 0 -1
vn 0 0 1

usemtl ProBuilderDefault
f 3/9/3 9/8/3 11/7/3
f 7/9/4 13/8/4 15/7/4
f 4/4/1 2/2/1 1/1/1
f 1/1/1 3/3/1 4/4/1
f 8/4/2 6/2/2 5/1/2
f 5/1/2 7/3/2 8/4/2
f 2/2/1 10/6/1 9/5/1
f 9/5/1 1/1/1 2/2/1
f 4/13/4 12/11/4 10/10/4
f 10/10/4 2/12/4 4/13/4
f 3/17/5 11/15/5 12/14/5
f 12/14/5 4/16/5 3/17/5
f 6/2/2 14/6/2 13/5/2
f 13/5/2 5/1/2 6/2/2
f 8/13/3 16/11/3 14/10/3
f 14/10/3 6/12/3 8/13/3
f 7/21/5 15/19/5 16/18/5
f 16/18/5 8/20/5 7/21/5
f 15/7/4 13/8/4 17/22/4
f 17/22/4 18/15/4 15/7/4
f 16/11/3 20/14/3 19/23/3
f 19/23/3 14/10/3 16/11/3
f 20/25/5 16/18/5 15/19/5
f 15/19/5 18/24/5 20/25/5
f 19/24/6 17/25/6 13/18/6
f 13/18/6 14/19/6 19/24/6
f 22/27/4 21/26/4 10/10/4
f 10/10/4 12/11/4 22/27/4
f 23/27/3 11/7/3 9/8/3
f 9/8/3 24/26/3 23/27/3
f 11/15/5 23/22/5 22/23/5
f 22/23/5 12/14/5 11/15/5
f 9/14/6 10/15/6 21/22/6
f 21/22/6 24/23/6 9/14/6
f 26/29/7 20/15/7 18/14/7
f 18/14/7 25/28/7 26/29/7
f 18/15/4 17/22/4 21/26/4
f 21/26/4 22/27/4 18/15/4
f 20/14/3 23/27/3 24/26/3
f 24/26/3 19/23/3 20/14/3
f 27/22/5 26/25/5 25/24/5
f 25/24/5 28/23/5 27/22/5
f 24/23/6 21/22/6 17/25/6
f 17/25/6 19/24/6 24/23/6
f 26/28/3 27/30/3 23/27/3
f 23/27/3 20/14/3 26/28/3
f 25/29/4 18/15/4 22/27/4
f 22/27/4 28/30/4 25/29/4
f 28/29/8 22/15/8 23/14/8
f 23/14/8 27/28/8 28/29/8

