# ProBuilder 5.2.3
# https://unity3d.com/unity/features/worldbuilding/probuilder
# 9/5/2024 6:37:45 PM

mtllib ./Token.mtl
o Token

g Token
v -0.5 0 0
v -0.5 1 0
v -0.4698463 0 0.1710101
v -0.4698463 1 0.1710101
v -0.3830222 0 0.3213938
v -0.3830222 1 0.3213938
v -0.25 0 0.4330128
v -0.25 1 0.4330128
v -0.08682412 0 0.4924039
v -0.08682412 1 0.4924039
v 0.08682412 0 0.4924039
v 0.08682412 1 0.4924039
v 0.25 0 0.4330128
v 0.25 1 0.4330128
v 0.3830222 0 0.3213938
v 0.3830222 1 0.3213938
v 0.4698463 0 0.1710101
v 0.4698463 1 0.1710101
v 0.5 0 -2.980232E-08
v 0.5 1 -2.980232E-08
v 0.4698463 0 -0.1710101
v 0.4698463 1 -0.1710101
v 0.3830222 0 -0.3213938
v 0.3830222 1 -0.3213938
v 0.2499999 0 -0.4330127
v 0.2499999 1 -0.4330127
v 0.08682406 0 -0.4924039
v 0.08682406 1 -0.4924039
v -0.08682406 0 -0.4924038
v -0.08682406 1 -0.4924038
v -0.2499999 0 -0.4330127
v -0.2499999 1 -0.4330127
v -0.3830222 0 -0.3213939
v -0.3830222 1 -0.3213939
v -0.4698462 0 -0.1710102
v -0.4698462 1 -0.1710102
v 0 0 0
v 0 1 0

vt -0.0868241 0
vt -0.0868241 1
vt 0.0868241 0
vt 0.0868241 1
vt -0.5 0
vt 0 0
vt -0.4698463 0.1710101
vt 0.5 0
vt 0.4698463 0.1710101
vt -0.3830222 0.3213938
vt 0.3830222 0.3213938
vt -0.25 0.4330128
vt 0.25 0.4330128
vt -0.08682412 0.4924039
vt 0.08682412 0.4924039
vt 0.4698463 -0.1710101
vt -0.4698463 -0.1710101
vt 0.3830222 -0.3213938
vt -0.3830222 -0.3213938
vt 0.2499999 -0.4330127
vt -0.2499999 -0.4330127
vt 0.08682406 -0.4924039
vt -0.08682406 -0.4924039

vn -1 0 -9.078622E-08
vn -0.9396926 0 0.3420202
vn -0.7660445 0 0.6427876
vn -0.5000001 0 0.8660253
vn -0.1736481 0 0.9848078
vn 0.1736481 0 0.9848078
vn 0.5 0 0.8660254
vn 0.7660444 0 0.6427877
vn 0.9396926 0 0.3420202
vn 1 0 -4.53931E-08
vn 0.9396927 0 -0.3420201
vn 0.7660443 0 -0.6427877
vn 0.4999999 0 -0.8660254
vn 0.1736481 0 -0.9848078
vn -0.1736483 0 -0.9848077
vn -0.4999998 0 -0.8660255
vn -0.7660443 0 -0.6427878
vn -0.9396926 0 -0.3420202
vn 0 -1 0
vn 0 1 0

usemtl ProBuilderDefault
f 1/5/19 37/6/19 3/7/19
f 3/7/19 37/6/19 5/10/19
f 5/10/19 37/6/19 7/12/19
f 7/12/19 37/6/19 9/14/19
f 9/14/19 37/6/19 11/15/19
f 11/15/19 37/6/19 13/13/19
f 13/13/19 37/6/19 15/11/19
f 15/11/19 37/6/19 17/9/19
f 17/9/19 37/6/19 19/8/19
f 19/8/19 37/6/19 21/16/19
f 21/16/19 37/6/19 23/18/19
f 23/18/19 37/6/19 25/20/19
f 25/20/19 37/6/19 27/22/19
f 27/22/19 37/6/19 29/23/19
f 29/23/19 37/6/19 31/21/19
f 31/21/19 37/6/19 33/19/19
f 33/19/19 37/6/19 35/17/19
f 35/17/19 37/6/19 1/5/19
f 4/9/20 38/6/20 2/8/20
f 6/11/20 38/6/20 4/9/20
f 8/13/20 38/6/20 6/11/20
f 10/15/20 38/6/20 8/13/20
f 12/14/20 38/6/20 10/15/20
f 14/12/20 38/6/20 12/14/20
f 16/10/20 38/6/20 14/12/20
f 18/7/20 38/6/20 16/10/20
f 20/5/20 38/6/20 18/7/20
f 22/17/20 38/6/20 20/5/20
f 24/19/20 38/6/20 22/17/20
f 26/21/20 38/6/20 24/19/20
f 28/23/20 38/6/20 26/21/20
f 30/22/20 38/6/20 28/23/20
f 32/20/20 38/6/20 30/22/20
f 34/18/20 38/6/20 32/20/20
f 36/16/20 38/6/20 34/18/20
f 2/8/20 38/6/20 36/16/20
f 4/4/2 2/2/1 1/1/1
f 1/1/1 3/3/2 4/4/2
f 6/4/3 4/2/2 3/1/2
f 3/1/2 5/3/3 6/4/3
f 8/4/4 6/2/3 5/1/3
f 5/1/3 7/3/4 8/4/4
f 10/4/5 8/2/4 7/1/4
f 7/1/4 9/3/5 10/4/5
f 12/4/6 10/2/5 9/1/5
f 9/1/5 11/3/6 12/4/6
f 14/4/7 12/2/6 11/1/6
f 11/1/6 13/3/7 14/4/7
f 16/4/8 14/2/7 13/1/7
f 13/1/7 15/3/8 16/4/8
f 18/4/9 16/2/8 15/1/8
f 15/1/8 17/3/9 18/4/9
f 20/4/10 18/2/9 17/1/9
f 17/1/9 19/3/10 20/4/10
f 22/4/11 20/2/10 19/1/10
f 19/1/10 21/3/11 22/4/11
f 24/4/12 22/2/11 21/1/11
f 21/1/11 23/3/12 24/4/12
f 26/4/13 24/2/12 23/1/12
f 23/1/12 25/3/13 26/4/13
f 28/4/14 26/2/13 25/1/13
f 25/1/13 27/3/14 28/4/14
f 30/4/15 28/2/14 27/1/14
f 27/1/14 29/3/15 30/4/15
f 32/4/16 30/2/15 29/1/15
f 29/1/15 31/3/16 32/4/16
f 34/4/17 32/2/16 31/1/16
f 31/1/16 33/3/17 34/4/17
f 36/4/18 34/2/17 33/1/17
f 33/1/17 35/3/18 36/4/18
f 2/4/1 36/2/18 35/1/18
f 35/1/18 1/3/1 2/4/1

